<svg width="1600" height="1200" viewBox="0 0 1600 1200" fill="none" xmlns="http://www.w3.org/2000/svg">
  <rect width="1600" height="1200" fill="#F0F2F7"/>
  <text x="60" y="72" fill="#00338D" font-family="Arial, Helvetica, sans-serif" font-size="14" font-weight="700" letter-spacing="4">RISK ASSESSMENT MOCKUPS</text>
  <text x="60" y="118" fill="#0C233C" font-family="Arial, Helvetica, sans-serif" font-size="42" font-weight="700">Storyboard Board 1</text>
  <text x="60" y="152" fill="#5A6478" font-family="Arial, Helvetica, sans-serif" font-size="18">Dashboard, create assessment, questionnaire, and analysis state.</text>

  <g transform="translate(60 200)">
    <text x="0" y="-18" fill="#00338D" font-family="Arial, Helvetica, sans-serif" font-size="12" font-weight="700" letter-spacing="3">SCREEN 1</text>
    <text x="0" y="12" fill="#0C233C" font-family="Arial, Helvetica, sans-serif" font-size="28" font-weight="700">Assessment Dashboard</text>
    <rect x="0" y="32" width="700" height="440" rx="26" fill="white" stroke="#DCE3EE"/>
    <rect x="0" y="32" width="92" height="440" rx="26" fill="#102843"/>
    <rect x="22" y="66" width="48" height="14" rx="7" fill="#FFFFFF"/>
    <rect x="22" y="88" width="52" height="14" rx="7" fill="#00B8F5"/>
    <rect x="22" y="144" width="48" height="48" rx="14" fill="#173B61" stroke="#27527E"/>
    <rect x="22" y="204" width="48" height="48" rx="14" fill="#173B61" stroke="#27527E"/>
    <rect x="22" y="264" width="48" height="48" rx="14" fill="#173B61" stroke="#27527E"/>
    <rect x="22" y="324" width="48" height="48" rx="14" fill="#153B62" stroke="#00B8F5"/>
    <rect x="92" y="32" width="608" height="112" fill="url(#hero1)"/>
    <text x="122" y="84" fill="white" font-family="Arial, Helvetica, sans-serif" font-size="26" font-weight="700">Risk Assessment</text>
    <text x="122" y="110" fill="#D7E3FF" font-family="Arial, Helvetica, sans-serif" font-size="14">Questionnaire, inherent scoring, residual analysis and reporting</text>
    <rect x="118" y="168" width="192" height="274" rx="18" fill="white" stroke="#E2E6EF"/>
    <text x="138" y="196" fill="#0C233C" font-family="Arial, Helvetica, sans-serif" font-size="16" font-weight="700">Assessment Sessions</text>
    <rect x="226" y="178" width="64" height="28" rx="14" fill="#1E49E2"/>
    <text x="242" y="197" fill="white" font-family="Arial, Helvetica, sans-serif" font-size="11" font-weight="700">New</text>
    <rect x="134" y="220" width="160" height="62" rx="14" fill="#EEF2FF" stroke="#8FA8F5"/>
    <text x="148" y="244" fill="#0C233C" font-family="Arial, Helvetica, sans-serif" font-size="12" font-weight="700">FY26 Cloud Payments Review</text>
    <text x="148" y="262" fill="#7388A8" font-family="Arial, Helvetica, sans-serif" font-size="10">4 applications in scope</text>
    <rect x="148" y="268" width="76" height="18" rx="9" fill="#EEF2FF" stroke="#BFD0FF"/>
    <text x="162" y="281" fill="#1E49E2" font-family="Arial, Helvetica, sans-serif" font-size="9" font-weight="700">In Progress</text>
    <rect x="134" y="292" width="160" height="62" rx="14" fill="white" stroke="#E2E6EF"/>
    <text x="148" y="316" fill="#0C233C" font-family="Arial, Helvetica, sans-serif" font-size="12" font-weight="700">Identity Governance Annual Review</text>
    <text x="148" y="334" fill="#7388A8" font-family="Arial, Helvetica, sans-serif" font-size="10">2 applications in scope</text>
    <rect x="148" y="340" width="48" height="18" rx="9" fill="#F3F6FA" stroke="#DCE3EE"/>
    <text x="162" y="353" fill="#6A748A" font-family="Arial, Helvetica, sans-serif" font-size="9" font-weight="700">Draft</text>
    <rect x="134" y="364" width="160" height="62" rx="14" fill="white" stroke="#E2E6EF"/>
    <text x="148" y="388" fill="#0C233C" font-family="Arial, Helvetica, sans-serif" font-size="12" font-weight="700">Vendor Onboarding Workflow</text>
    <text x="148" y="406" fill="#7388A8" font-family="Arial, Helvetica, sans-serif" font-size="10">3 applications in scope</text>
    <rect x="148" y="412" width="58" height="18" rx="9" fill="#EDFBF5" stroke="#BFE7D1"/>
    <text x="159" y="425" fill="#009A44" font-family="Arial, Helvetica, sans-serif" font-size="9" font-weight="700">Complete</text>
    <rect x="328" y="168" width="352" height="98" rx="18" fill="#7213EA"/>
    <rect x="446" y="168" width="118" height="98" rx="0" fill="#1E49E2"/>
    <rect x="564" y="168" width="116" height="98" rx="18" fill="#098E7E"/>
    <text x="348" y="198" fill="white" font-family="Arial, Helvetica, sans-serif" font-size="12" font-weight="700">1</text>
    <text x="348" y="218" fill="white" font-family="Arial, Helvetica, sans-serif" font-size="15" font-weight="700">Define Scope</text>
    <text x="348" y="238" fill="#EEE6FF" font-family="Arial, Helvetica, sans-serif" font-size="11">Select registry assets and any ad hoc systems.</text>
    <text x="466" y="198" fill="white" font-family="Arial, Helvetica, sans-serif" font-size="12" font-weight="700">2</text>
    <text x="466" y="218" fill="white" font-family="Arial, Helvetica, sans-serif" font-size="15" font-weight="700">Capture Responses</text>
    <text x="466" y="238" fill="#D7E3FF" font-family="Arial, Helvetica, sans-serif" font-size="11">Work through the application questionnaire.</text>
    <text x="584" y="198" fill="white" font-family="Arial, Helvetica, sans-serif" font-size="12" font-weight="700">3</text>
    <text x="584" y="218" fill="white" font-family="Arial, Helvetica, sans-serif" font-size="15" font-weight="700">Score And Report</text>
    <text x="584" y="238" fill="#DDF6F2" font-family="Arial, Helvetica, sans-serif" font-size="11">Review risks, controls, residuals, and export.</text>
    <rect x="328" y="282" width="108" height="104" rx="18" fill="white" stroke="#E2E6EF"/>
    <rect x="328" y="282" width="108" height="4" fill="#1E49E2"/>
    <text x="344" y="308" fill="#8492A6" font-family="Arial, Helvetica, sans-serif" font-size="10" font-weight="700" letter-spacing="2">ACTIVE</text>
    <text x="344" y="352" fill="#0C233C" font-family="Arial, Helvetica, sans-serif" font-size="32" font-weight="700">7</text>
    <text x="344" y="372" fill="#5A6478" font-family="Arial, Helvetica, sans-serif" font-size="11">Sessions progressing</text>
    <rect x="450" y="282" width="108" height="104" rx="18" fill="white" stroke="#E2E6EF"/>
    <rect x="450" y="282" width="108" height="4" fill="#EAAA00"/>
    <text x="466" y="308" fill="#8492A6" font-family="Arial, Helvetica, sans-serif" font-size="10" font-weight="700" letter-spacing="2">HIGH / CRITICAL</text>
    <text x="466" y="352" fill="#0C233C" font-family="Arial, Helvetica, sans-serif" font-size="32" font-weight="700">19</text>
    <text x="466" y="372" fill="#5A6478" font-family="Arial, Helvetica, sans-serif" font-size="11">Across open assessments</text>
    <rect x="572" y="282" width="108" height="104" rx="18" fill="white" stroke="#E2E6EF"/>
    <rect x="572" y="282" width="108" height="4" fill="#009A44"/>
    <text x="588" y="308" fill="#8492A6" font-family="Arial, Helvetica, sans-serif" font-size="10" font-weight="700" letter-spacing="2">DRAFTS</text>
    <text x="588" y="352" fill="#0C233C" font-family="Arial, Helvetica, sans-serif" font-size="32" font-weight="700">3</text>
    <text x="588" y="372" fill="#5A6478" font-family="Arial, Helvetica, sans-serif" font-size="11">Waiting for scope</text>
    <rect x="328" y="400" width="352" height="42" rx="14" fill="white" stroke="#E2E6EF"/>
    <text x="346" y="426" fill="#0C233C" font-family="Arial, Helvetica, sans-serif" font-size="13" font-weight="700">Recent Assessments</text>
    <text x="494" y="426" fill="#8492A6" font-family="Arial, Helvetica, sans-serif" font-size="11">Cloud Payments Review · 4 apps · In Progress</text>
  </g>

  <g transform="translate(840 200)">
    <text x="0" y="-18" fill="#00338D" font-family="Arial, Helvetica, sans-serif" font-size="12" font-weight="700" letter-spacing="3">SCREEN 2</text>
    <text x="0" y="12" fill="#0C233C" font-family="Arial, Helvetica, sans-serif" font-size="28" font-weight="700">Create Assessment</text>
    <rect x="0" y="32" width="700" height="440" rx="26" fill="white" stroke="#DCE3EE"/>
    <rect x="0" y="32" width="92" height="440" rx="26" fill="#102843"/>
    <rect x="22" y="66" width="48" height="14" rx="7" fill="#FFFFFF"/>
    <rect x="22" y="88" width="52" height="14" rx="7" fill="#00B8F5"/>
    <rect x="22" y="324" width="48" height="48" rx="14" fill="#153B62" stroke="#00B8F5"/>
    <rect x="92" y="32" width="608" height="112" fill="url(#hero2)"/>
    <text x="122" y="84" fill="white" font-family="Arial, Helvetica, sans-serif" font-size="26" font-weight="700">Risk Assessment</text>
    <text x="122" y="110" fill="#D7E3FF" font-family="Arial, Helvetica, sans-serif" font-size="14">Set the scope, select applications, and capture any ad hoc systems.</text>
    <text x="122" y="184" fill="#00338D" font-family="Arial, Helvetica, sans-serif" font-size="11" font-weight="700" letter-spacing="3">SETUP</text>
    <text x="122" y="212" fill="#0C233C" font-family="Arial, Helvetica, sans-serif" font-size="22" font-weight="700">Create New Assessment</text>
    <rect x="118" y="232" width="322" height="190" rx="18" fill="white" stroke="#E2E6EF"/>
    <text x="138" y="258" fill="#8492A6" font-family="Arial, Helvetica, sans-serif" font-size="10" font-weight="700" letter-spacing="2">ASSESSMENT TITLE</text>
    <rect x="138" y="268" width="282" height="36" rx="12" fill="#FBFCFE" stroke="#E2E6EF"/>
    <text x="138" y="330" fill="#8492A6" font-family="Arial, Helvetica, sans-serif" font-size="10" font-weight="700" letter-spacing="2">APPLICATIONS IN SCOPE</text>
    <rect x="138" y="342" width="282" height="32" rx="12" fill="white" stroke="#E2E6EF"/>
    <text x="150" y="362" fill="#0C233C" font-family="Arial, Helvetica, sans-serif" font-size="12" font-weight="700">Cloud Payments Platform</text>
    <rect x="340" y="348" width="66" height="18" rx="9" fill="#FEEBED" stroke="#F3C6CF"/>
    <text x="355" y="361" fill="#E5001B" font-family="Arial, Helvetica, sans-serif" font-size="9" font-weight="700">Critical</text>
    <rect x="138" y="380" width="282" height="32" rx="12" fill="white" stroke="#E2E6EF"/>
    <text x="150" y="400" fill="#0C233C" font-family="Arial, Helvetica, sans-serif" font-size="12" font-weight="700">Identity Governance Portal</text>
    <rect x="350" y="386" width="56" height="18" rx="9" fill="#FFF4E8" stroke="#F6D3A0"/>
    <text x="367" y="399" fill="#AB5C00" font-family="Arial, Helvetica, sans-serif" font-size="9" font-weight="700">High</text>
    <rect x="456" y="232" width="224" height="190" rx="18" fill="white" stroke="#E2E6EF"/>
    <text x="476" y="258" fill="#0C233C" font-family="Arial, Helvetica, sans-serif" font-size="14" font-weight="700">Ad Hoc Application</text>
    <text x="476" y="284" fill="#8492A6" font-family="Arial, Helvetica, sans-serif" font-size="10" font-weight="700" letter-spacing="2">APPLICATION NAME</text>
    <rect x="476" y="294" width="184" height="34" rx="12" fill="#FBFCFE" stroke="#E2E6EF"/>
    <text x="476" y="346" fill="#8492A6" font-family="Arial, Helvetica, sans-serif" font-size="10" font-weight="700" letter-spacing="2">CIA SCORING</text>
    <rect x="476" y="356" width="54" height="48" rx="12" fill="#FBFCFE" stroke="#E2E6EF"/>
    <rect x="540" y="356" width="54" height="48" rx="12" fill="#FBFCFE" stroke="#E2E6EF"/>
    <rect x="604" y="356" width="54" height="48" rx="12" fill="#FBFCFE" stroke="#E2E6EF"/>
    <text x="487" y="378" fill="#8492A6" font-family="Arial, Helvetica, sans-serif" font-size="9" font-weight="700">CONF</text>
    <text x="553" y="378" fill="#8492A6" font-family="Arial, Helvetica, sans-serif" font-size="9" font-weight="700">INT</text>
    <text x="613" y="378" fill="#8492A6" font-family="Arial, Helvetica, sans-serif" font-size="9" font-weight="700">AVAIL</text>
    <text x="500" y="396" fill="#0C233C" font-family="Arial, Helvetica, sans-serif" font-size="16" font-weight="700">3</text>
    <text x="564" y="396" fill="#0C233C" font-family="Arial, Helvetica, sans-serif" font-size="16" font-weight="700">3</text>
    <text x="626" y="396" fill="#0C233C" font-family="Arial, Helvetica, sans-serif" font-size="16" font-weight="700">4</text>
    <rect x="118" y="434" width="562" height="18" rx="9" fill="#EEF2FF"/>
    <text x="132" y="447" fill="#1E49E2" font-family="Arial, Helvetica, sans-serif" font-size="10" font-weight="700">3 registry assets · 1 ad hoc application · 4 systems total</text>
  </g>

  <g transform="translate(60 720)">
    <text x="0" y="-18" fill="#00338D" font-family="Arial, Helvetica, sans-serif" font-size="12" font-weight="700" letter-spacing="3">SCREEN 3</text>
    <text x="0" y="12" fill="#0C233C" font-family="Arial, Helvetica, sans-serif" font-size="28" font-weight="700">Questionnaire Workspace</text>
    <rect x="0" y="32" width="700" height="420" rx="26" fill="white" stroke="#DCE3EE"/>
    <rect x="0" y="32" width="92" height="420" rx="26" fill="#102843"/>
    <rect x="22" y="324" width="48" height="48" rx="14" fill="#153B62" stroke="#00B8F5"/>
    <rect x="92" y="32" width="608" height="92" fill="url(#hero3)"/>
    <text x="122" y="76" fill="white" font-family="Arial, Helvetica, sans-serif" font-size="24" font-weight="700">Risk Assessment</text>
    <rect x="122" y="144" width="64" height="24" rx="12" fill="#EDFBF5"/><text x="138" y="160" fill="#009A44" font-family="Arial, Helvetica, sans-serif" font-size="10" font-weight="700">Create</text>
    <rect x="194" y="144" width="96" height="24" rx="12" fill="#1E49E2"/><text x="214" y="160" fill="white" font-family="Arial, Helvetica, sans-serif" font-size="10" font-weight="700">Questionnaire</text>
    <rect x="298" y="144" width="68" height="24" rx="12" fill="white" stroke="#E2E6EF"/><text x="318" y="160" fill="#8492A6" font-family="Arial, Helvetica, sans-serif" font-size="10" font-weight="700">Analyse</text>
    <rect x="374" y="144" width="54" height="24" rx="12" fill="white" stroke="#E2E6EF"/><text x="392" y="160" fill="#8492A6" font-family="Arial, Helvetica, sans-serif" font-size="10" font-weight="700">Risks</text>
    <rect x="436" y="144" width="68" height="24" rx="12" fill="white" stroke="#E2E6EF"/><text x="453" y="160" fill="#8492A6" font-family="Arial, Helvetica, sans-serif" font-size="10" font-weight="700">Controls</text>
    <rect x="512" y="144" width="66" height="24" rx="12" fill="white" stroke="#E2E6EF"/><text x="529" y="160" fill="#8492A6" font-family="Arial, Helvetica, sans-serif" font-size="10" font-weight="700">Residual</text>
    <rect x="586" y="144" width="54" height="24" rx="12" fill="white" stroke="#E2E6EF"/><text x="603" y="160" fill="#8492A6" font-family="Arial, Helvetica, sans-serif" font-size="10" font-weight="700">Report</text>
    <rect x="122" y="180" width="518" height="42" rx="16" fill="white" stroke="#E2E6EF"/>
    <text x="140" y="205" fill="#5A6478" font-family="Arial, Helvetica, sans-serif" font-size="12">Identity Governance Portal · Application 2 of 4 · 18 of 32 answered</text>
    <rect x="552" y="188" width="72" height="26" rx="13" fill="#1E49E2"/><text x="566" y="205" fill="white" font-family="Arial, Helvetica, sans-serif" font-size="10" font-weight="700">Save Next</text>
    <rect x="122" y="236" width="126" height="22" rx="11" fill="white" stroke="#E2E6EF"/><text x="137" y="250" fill="#8492A6" font-family="Arial, Helvetica, sans-serif" font-size="9" font-weight="700">Cloud Payments</text>
    <rect x="256" y="236" width="142" height="22" rx="11" fill="#1E49E2"/><text x="276" y="250" fill="white" font-family="Arial, Helvetica, sans-serif" font-size="9" font-weight="700">Identity Governance</text>
    <rect x="406" y="236" width="138" height="22" rx="11" fill="white" stroke="#E2E6EF"/><text x="426" y="250" fill="#8492A6" font-family="Arial, Helvetica, sans-serif" font-size="9" font-weight="700">Vendor Onboarding</text>
    <rect x="122" y="274" width="518" height="160" rx="20" fill="white" stroke="#E2E6EF"/>
    <text x="144" y="302" fill="#0C233C" font-family="Arial, Helvetica, sans-serif" font-size="14" font-weight="700">Governance</text>
    <rect x="552" y="286" width="56" height="18" rx="9" fill="#EDFBF5" stroke="#BFE7D1"/><text x="569" y="299" fill="#009A44" font-family="Arial, Helvetica, sans-serif" font-size="9" font-weight="700">5 / 8</text>
    <rect x="144" y="318" width="54" height="16" rx="8" fill="#EEF2FF" stroke="#D0DBFF"/><text x="157" y="329" fill="#1E49E2" font-family="Arial, Helvetica, sans-serif" font-size="8" font-weight="700">Exposure</text>
    <text x="144" y="352" fill="#5A6478" font-family="Arial, Helvetica, sans-serif" font-size="11">Does the application support privileged access functions that could materially impact production services?</text>
    <rect x="144" y="366" width="40" height="22" rx="11" fill="#1E49E2"/><text x="158" y="380" fill="white" font-family="Arial, Helvetica, sans-serif" font-size="9" font-weight="700">Yes</text>
    <rect x="192" y="366" width="36" height="22" rx="11" fill="white" stroke="#E2E6EF"/><text x="205" y="380" fill="#8492A6" font-family="Arial, Helvetica, sans-serif" font-size="9" font-weight="700">No</text>
    <rect x="236" y="366" width="40" height="22" rx="11" fill="white" stroke="#E2E6EF"/><text x="248" y="380" fill="#8492A6" font-family="Arial, Helvetica, sans-serif" font-size="9" font-weight="700">N/A</text>
    <rect x="288" y="366" width="260" height="22" rx="8" fill="#FBFCFE" stroke="#E2E6EF"/>
    <rect x="144" y="398" width="48" height="16" rx="8" fill="#F3F6FA" stroke="#E2E6EF"/><text x="157" y="409" fill="#6A748A" font-family="Arial, Helvetica, sans-serif" font-size="8" font-weight="700">Control</text>
    <text x="144" y="428" fill="#5A6478" font-family="Arial, Helvetica, sans-serif" font-size="11">Are quarterly access reviews formally performed by an independent owner?</text>
  </g>

  <g transform="translate(840 720)">
    <text x="0" y="-18" fill="#00338D" font-family="Arial, Helvetica, sans-serif" font-size="12" font-weight="700" letter-spacing="3">SCREEN 4</text>
    <text x="0" y="12" fill="#0C233C" font-family="Arial, Helvetica, sans-serif" font-size="28" font-weight="700">Analysis Running</text>
    <rect x="0" y="32" width="700" height="420" rx="26" fill="white" stroke="#DCE3EE"/>
    <rect x="0" y="32" width="92" height="420" rx="26" fill="#102843"/>
    <rect x="22" y="324" width="48" height="48" rx="14" fill="#153B62" stroke="#00B8F5"/>
    <rect x="92" y="32" width="608" height="92" fill="url(#hero4)"/>
    <text x="122" y="76" fill="white" font-family="Arial, Helvetica, sans-serif" font-size="24" font-weight="700">Risk Assessment</text>
    <rect x="122" y="144" width="64" height="24" rx="12" fill="#EDFBF5"/><text x="138" y="160" fill="#009A44" font-family="Arial, Helvetica, sans-serif" font-size="10" font-weight="700">Create</text>
    <rect x="194" y="144" width="96" height="24" rx="12" fill="#EDFBF5"/><text x="214" y="160" fill="#009A44" font-family="Arial, Helvetica, sans-serif" font-size="10" font-weight="700">Questionnaire</text>
    <rect x="298" y="144" width="68" height="24" rx="12" fill="#1E49E2"/><text x="318" y="160" fill="white" font-family="Arial, Helvetica, sans-serif" font-size="10" font-weight="700">Analyse</text>
    <rect x="122" y="182" width="334" height="220" rx="22" fill="white" stroke="#E2E6EF"/>
    <text x="152" y="218" fill="#00338D" font-family="Arial, Helvetica, sans-serif" font-size="11" font-weight="700" letter-spacing="3">PROCESSING</text>
    <text x="152" y="250" fill="#0C233C" font-family="Arial, Helvetica, sans-serif" font-size="20" font-weight="700">Scoring Inherent Risk Across Selected Applications</text>
    <circle cx="290" cy="320" r="70" fill="#DBE4F3"/>
    <path d="M290 250 A70 70 0 1 1 224 348" stroke="#1E49E2" stroke-width="20" fill="none" stroke-linecap="round"/>
    <circle cx="290" cy="320" r="46" fill="white"/>
    <text x="266" y="327" fill="#0C233C" font-family="Arial, Helvetica, sans-serif" font-size="24" font-weight="700">58%</text>
    <rect x="476" y="182" width="184" height="220" rx="22" fill="white" stroke="#E2E6EF"/>
    <text x="500" y="218" fill="#00338D" font-family="Arial, Helvetica, sans-serif" font-size="11" font-weight="700" letter-spacing="3">CURRENT RUN</text>
    <rect x="500" y="242" width="136" height="34" rx="12" fill="#F7F9FD"/><text x="514" y="263" fill="#0C233C" font-family="Arial, Helvetica, sans-serif" font-size="11">Responses Validated</text><rect x="590" y="250" width="36" height="18" rx="9" fill="#EDFBF5"/><text x="600" y="263" fill="#009A44" font-family="Arial, Helvetica, sans-serif" font-size="8" font-weight="700">Done</text>
    <rect x="500" y="286" width="136" height="34" rx="12" fill="#F7F9FD"/><text x="514" y="307" fill="#0C233C" font-family="Arial, Helvetica, sans-serif" font-size="11">Exposure Patterns</text><rect x="584" y="294" width="42" height="18" rx="9" fill="#EEF2FF"/><text x="593" y="307" fill="#1E49E2" font-family="Arial, Helvetica, sans-serif" font-size="8" font-weight="700">Running</text>
    <rect x="500" y="330" width="136" height="34" rx="12" fill="#F7F9FD"/><text x="514" y="351" fill="#0C233C" font-family="Arial, Helvetica, sans-serif" font-size="11">Draft Risks Generated</text><rect x="592" y="338" width="34" height="18" rx="9" fill="white" stroke="#E2E6EF"/><text x="601" y="351" fill="#8492A6" font-family="Arial, Helvetica, sans-serif" font-size="8" font-weight="700">Queued</text>
  </g>

  <defs>
    <linearGradient id="hero1" x1="92" y1="32" x2="700" y2="144" gradientUnits="userSpaceOnUse">
      <stop stop-color="#0C233C"/>
      <stop offset="1" stop-color="#1E49E2"/>
    </linearGradient>
    <linearGradient id="hero2" x1="92" y1="32" x2="700" y2="144" gradientUnits="userSpaceOnUse">
      <stop stop-color="#0C233C"/>
      <stop offset="1" stop-color="#1E49E2"/>
    </linearGradient>
    <linearGradient id="hero3" x1="92" y1="32" x2="700" y2="124" gradientUnits="userSpaceOnUse">
      <stop stop-color="#0C233C"/>
      <stop offset="1" stop-color="#1E49E2"/>
    </linearGradient>
    <linearGradient id="hero4" x1="92" y1="32" x2="700" y2="124" gradientUnits="userSpaceOnUse">
      <stop stop-color="#0C233C"/>
      <stop offset="1" stop-color="#1E49E2"/>
    </linearGradient>
  </defs>
</svg>
